
<svg xmlns="http://www.w3.org/2000/svg" viewBox="269.7969 206.733 88.5807 132.7592" width="192px" height="192px">
  <path d="M 289.633 255.937 C 277.875 282.863 269.21 307.616 269.828 310.711 C 270.754 316.592 304.487 339.182 312.53 339.489 C 320.581 339.8 357.405 316.9 358.335 310.711 C 359.883 302.979 318.725 206.733 314.078 206.733 C 311.912 206.733 301.083 228.704 289.633 255.937 M 335.123 277.29 C 341.311 292.144 346.577 305.142 346.577 306.382 C 346.577 309.786 320.888 324.021 318.107 322.473 C 316.863 321.547 315.626 304.212 315.626 284.097 C 315.626 239.225 318.725 238.299 335.123 277.29" style="stroke-width: 1;" transform="matrix(0.9999999999999999, 0, 0, 0.9999999999999999, -1.4210854715202004e-14, 0)"/>
</svg>
